<svg xmlns="http://www.w3.org/2000/svg" height="180.075" version="1.1" viewBox="0 0 355.338 135.056" width="473.784" id="svg85"><defs id="defs4"><path d="M146.312 28.989h241.235v86.32H146.312z" id="rect99"/><path d="M230.289 82.925h249.575V200.24H230.289z" id="rect93"/><style type="text/css" id="style2">*{stroke-linecap:butt;stroke-linejoin:round}</style></defs><g id="figure_1" transform="translate(-93.283 -116.288)"><g id="axes_1"><g id="patch_2"><path stroke-linejoin="miter" stroke-width="2" stroke="#555" fill="none" clip-path="url(#p9375dff77f)" d="M173.52 173.52a33.266 33.266 0 0023.521-56.785 33.266 33.266 0 00-56.785 23.521 33.266 33.266 0 0033.264 33.264z" id="path6"/></g><g id="patch_3"><path stroke-linejoin="miter" stroke-width="2" stroke="#555" fill="none" clip-path="url(#p9375dff77f)" d="M172.387 164.91a33.266 33.266 0 0023.52-56.785 33.266 33.266 0 00-56.784 23.522 33.266 33.266 0 0033.264 33.264z" id="path9"/></g><g id="patch_4"><path stroke-linejoin="miter" stroke-width="2" stroke="#555" fill="none" clip-path="url(#p9375dff77f)" d="M169.063 156.888a33.266 33.266 0 0023.522-56.785 33.266 33.266 0 00-56.786 23.521 33.266 33.266 0 0033.264 33.264z" id="path12"/></g><g id="patch_5"><path stroke-linejoin="miter" stroke-width="2" stroke="#555" fill="none" clip-path="url(#p9375dff77f)" d="M163.777 149.999a33.266 33.266 0 0023.521-56.785 33.266 33.266 0 00-56.785 23.52A33.266 33.266 0 00163.777 150z" id="path15"/></g><g id="patch_6"><path stroke-linejoin="miter" stroke-width="2" stroke="#555" fill="none" clip-path="url(#p9375dff77f)" d="M156.888 144.713a33.266 33.266 0 0023.521-56.786 33.266 33.266 0 00-56.785 23.522 33.266 33.266 0 0033.264 33.264z" id="path18"/></g><g id="patch_7"><path stroke-linejoin="miter" stroke-width="2" stroke="#555" fill="none" clip-path="url(#p9375dff77f)" d="M148.865 141.39a33.266 33.266 0 0023.522-56.786 33.266 33.266 0 00-56.786 23.521 33.266 33.266 0 0033.264 33.264z" id="path21"/></g><g id="patch_8"><path stroke-linejoin="miter" stroke-width="2" stroke="#555" fill="none" clip-path="url(#p9375dff77f)" d="M140.256 140.256a33.266 33.266 0 0023.521-56.785 33.266 33.266 0 00-56.785 23.521 33.266 33.266 0 0033.264 33.264z" id="path24"/></g><g id="patch_9"><path stroke-linejoin="miter" stroke-width="2" stroke="#555" fill="none" clip-path="url(#p9375dff77f)" d="M131.647 141.39a33.266 33.266 0 0023.52-56.786 33.266 33.266 0 00-56.784 23.521 33.266 33.266 0 0033.264 33.264z" id="path27"/></g><g id="patch_10"><path stroke-linejoin="miter" stroke-width="2" stroke="#555" fill="none" clip-path="url(#p9375dff77f)" d="M123.624 144.713a33.266 33.266 0 0023.521-56.786A33.266 33.266 0 0090.36 111.45a33.266 33.266 0 0033.264 33.264z" id="path30"/></g><g id="patch_11"><path stroke-linejoin="miter" stroke-width="2" stroke="#555" fill="none" clip-path="url(#p9375dff77f)" d="M116.735 149.999a33.266 33.266 0 0023.521-56.785 33.266 33.266 0 00-56.785 23.52A33.266 33.266 0 00116.735 150z" id="path33"/></g><g id="patch_12"><path stroke-linejoin="miter" stroke-width="2" stroke="#555" fill="none" clip-path="url(#p9375dff77f)" d="M111.449 156.888a33.266 33.266 0 0023.52-56.785 33.266 33.266 0 00-56.784 23.521 33.266 33.266 0 0033.264 33.264z" id="path36"/></g><g id="patch_13"><path stroke-linejoin="miter" stroke-width="2" stroke="#555" fill="none" clip-path="url(#p9375dff77f)" d="M108.125 164.91a33.266 33.266 0 0023.522-56.785 33.266 33.266 0 00-56.786 23.522 33.266 33.266 0 0033.264 33.264z" id="path39"/></g><g id="patch_14"><path stroke-linejoin="miter" stroke-width="2" stroke="#555" fill="none" clip-path="url(#p9375dff77f)" d="M106.992 173.52a33.266 33.266 0 0023.521-56.785 33.266 33.266 0 00-56.785 23.521 33.266 33.266 0 0033.264 33.264z" id="path42"/></g><g id="patch_15"><path stroke-linejoin="miter" stroke-width="2" stroke="#555" fill="none" clip-path="url(#p9375dff77f)" d="M108.125 182.13a33.266 33.266 0 0023.522-56.786 33.266 33.266 0 00-56.786 23.521 33.266 33.266 0 0033.264 33.264z" id="path45"/></g><g id="patch_16"><path stroke-linejoin="miter" stroke-width="2" stroke="#555" fill="none" clip-path="url(#p9375dff77f)" d="M111.449 190.152a33.266 33.266 0 0023.52-56.785 33.266 33.266 0 00-56.784 23.521 33.266 33.266 0 0033.264 33.264z" id="path48"/></g><g id="patch_17"><path stroke-linejoin="miter" stroke-width="2" stroke="#555" fill="none" clip-path="url(#p9375dff77f)" d="M116.735 197.041a33.266 33.266 0 0023.521-56.785 33.266 33.266 0 00-56.785 23.521 33.266 33.266 0 0033.264 33.264z" id="path51"/></g><g id="patch_18"><path stroke-linejoin="miter" stroke-width="2" stroke="#555" fill="none" clip-path="url(#p9375dff77f)" d="M123.624 202.327a33.266 33.266 0 0023.521-56.785 33.266 33.266 0 00-56.785 23.521 33.266 33.266 0 0033.264 33.264z" id="path54"/></g><g id="patch_19"><path stroke-linejoin="miter" stroke-width="2" stroke="#555" fill="none" clip-path="url(#p9375dff77f)" d="M131.647 205.65a33.266 33.266 0 0023.52-56.785 33.266 33.266 0 00-56.784 23.522 33.266 33.266 0 0033.264 33.264z" id="path57"/></g><g id="patch_20"><path stroke-linejoin="miter" stroke-width="2" stroke="#555" fill="none" clip-path="url(#p9375dff77f)" d="M140.256 206.784a33.266 33.266 0 0023.521-56.785 33.266 33.266 0 00-56.785 23.521 33.266 33.266 0 0033.264 33.264z" id="path60"/></g><g id="patch_21"><path stroke-linejoin="miter" stroke-width="2" stroke="#555" fill="none" clip-path="url(#p9375dff77f)" d="M148.865 205.65a33.266 33.266 0 0023.522-56.785 33.266 33.266 0 00-56.786 23.522 33.266 33.266 0 0033.264 33.264z" id="path63"/></g><g id="patch_22"><path stroke-linejoin="miter" stroke-width="2" stroke="#555" fill="none" clip-path="url(#p9375dff77f)" d="M156.888 202.327a33.266 33.266 0 0023.521-56.785 33.266 33.266 0 00-56.785 23.521 33.266 33.266 0 0033.264 33.264z" id="path66"/></g><g id="patch_23"><path stroke-linejoin="miter" stroke-width="2" stroke="#555" fill="none" clip-path="url(#p9375dff77f)" d="M163.777 197.041a33.266 33.266 0 0023.521-56.785 33.266 33.266 0 00-56.785 23.521 33.266 33.266 0 0033.264 33.264z" id="path69"/></g><g id="patch_24"><path stroke-linejoin="miter" stroke-width="2" stroke="#555" fill="none" clip-path="url(#p9375dff77f)" d="M169.063 190.152a33.266 33.266 0 0023.522-56.785 33.266 33.266 0 00-56.786 23.521 33.266 33.266 0 0033.264 33.264z" id="path72"/></g><g id="patch_25"><path stroke-linejoin="miter" stroke-width="2" stroke="#555" fill="none" clip-path="url(#p9375dff77f)" d="M172.387 182.13a33.266 33.266 0 0023.52-56.786 33.266 33.266 0 00-56.784 23.521 33.266 33.266 0 0033.264 33.264z" id="path75"/></g></g></g><defs id="defs83"><clipPath id="p9375dff77f"><path d="M7.2 7.2h266.112v266.112H7.2z" id="rect80"/></clipPath></defs><text y="426.643" x="-10.109" stroke-opacity="1" stroke-linejoin="miter" stroke-linecap="butt" stroke-width=".75" stroke="#000" fill="none" word-spacing="0" letter-spacing="0" font-family="'Helvetica LT Std'" font-size="90" font-stretch="normal" font-weight="700" font-variant="normal" font-style="normal" xml:space="preserve" id="text97" style="line-height:0%;-inkscape-font-specification:'Helvetica LT Std Bold';white-space:pre;shape-inside:url(#rect99)"><tspan x="146.313" y="48.608"><tspan style="-inkscape-font-specification:'Helvetica LT Std Condensed'" font-weight="400" font-stretch="condensed" font-family="Helvetica LT Std" fill="#555" stroke="#555" stroke-linejoin="round">ndim</tspan></tspan></text></svg>