<svg xmlns="http://www.w3.org/2000/svg" id="svg85" width="445.49" viewBox="0 0 334.117 135.053" version="1.1" height="180.07"><defs id="defs4"><path id="rect99" d="M146.312 28.989h241.235v86.32H146.312z"/><path id="rect93" d="M230.289 82.925h249.575V200.24H230.289z"/><style id="style2" type="text/css">*{stroke-linecap:butt;stroke-linejoin:round}</style></defs><g transform="translate(-72.729 -72.731)" id="figure_1"><g id="axes_1"><g id="patch_2"><path id="path6" d="M173.52 173.52a33.266 33.266 0 0 0 23.521-56.785 33.266 33.266 0 0 0-56.785 23.521 33.266 33.266 0 0 0 33.264 33.264z" clip-path="url(#p9375dff77f)" fill="none" stroke="#555" stroke-width="2" stroke-linejoin="miter"/></g><g id="patch_3"><path id="path9" d="M172.387 164.91a33.266 33.266 0 0 0 23.52-56.785 33.266 33.266 0 0 0-56.784 23.522 33.266 33.266 0 0 0 33.264 33.264z" clip-path="url(#p9375dff77f)" fill="none" stroke="#555" stroke-width="2" stroke-linejoin="miter"/></g><g id="patch_4"><path id="path12" d="M169.063 156.888a33.266 33.266 0 0 0 23.522-56.785 33.266 33.266 0 0 0-56.786 23.521 33.266 33.266 0 0 0 33.264 33.264z" clip-path="url(#p9375dff77f)" fill="none" stroke="#555" stroke-width="2" stroke-linejoin="miter"/></g><g id="patch_5"><path id="path15" d="M163.777 149.999a33.266 33.266 0 0 0 23.521-56.785 33.266 33.266 0 0 0-56.785 23.52A33.266 33.266 0 0 0 163.777 150z" clip-path="url(#p9375dff77f)" fill="none" stroke="#555" stroke-width="2" stroke-linejoin="miter"/></g><g id="patch_6"><path id="path18" d="M156.888 144.713a33.266 33.266 0 0 0 23.521-56.786 33.266 33.266 0 0 0-56.785 23.522 33.266 33.266 0 0 0 33.264 33.264z" clip-path="url(#p9375dff77f)" fill="none" stroke="#555" stroke-width="2" stroke-linejoin="miter"/></g><g id="patch_7"><path id="path21" d="M148.865 141.39a33.266 33.266 0 0 0 23.522-56.786 33.266 33.266 0 0 0-56.786 23.521 33.266 33.266 0 0 0 33.264 33.264z" clip-path="url(#p9375dff77f)" fill="none" stroke="#555" stroke-width="2" stroke-linejoin="miter"/></g><g id="patch_8"><path id="path24" d="M140.256 140.256a33.266 33.266 0 0 0 23.521-56.785 33.266 33.266 0 0 0-56.785 23.521 33.266 33.266 0 0 0 33.264 33.264z" clip-path="url(#p9375dff77f)" fill="none" stroke="#555" stroke-width="2" stroke-linejoin="miter"/></g><g id="patch_9"><path id="path27" d="M131.647 141.39a33.266 33.266 0 0 0 23.52-56.786 33.266 33.266 0 0 0-56.784 23.521 33.266 33.266 0 0 0 33.264 33.264z" clip-path="url(#p9375dff77f)" fill="none" stroke="#555" stroke-width="2" stroke-linejoin="miter"/></g><g id="patch_10"><path id="path30" d="M123.624 144.713a33.266 33.266 0 0 0 23.521-56.786A33.266 33.266 0 0 0 90.36 111.45a33.266 33.266 0 0 0 33.264 33.264z" clip-path="url(#p9375dff77f)" fill="none" stroke="#555" stroke-width="2" stroke-linejoin="miter"/></g><g id="patch_11"><path id="path33" d="M116.735 149.999a33.266 33.266 0 0 0 23.521-56.785 33.266 33.266 0 0 0-56.785 23.52A33.266 33.266 0 0 0 116.735 150z" clip-path="url(#p9375dff77f)" fill="none" stroke="#555" stroke-width="2" stroke-linejoin="miter"/></g><g id="patch_12"><path id="path36" d="M111.449 156.888a33.266 33.266 0 0 0 23.52-56.785 33.266 33.266 0 0 0-56.784 23.521 33.266 33.266 0 0 0 33.264 33.264z" clip-path="url(#p9375dff77f)" fill="none" stroke="#555" stroke-width="2" stroke-linejoin="miter"/></g><g id="patch_13"><path id="path39" d="M108.125 164.91a33.266 33.266 0 0 0 23.522-56.785 33.266 33.266 0 0 0-56.786 23.522 33.266 33.266 0 0 0 33.264 33.264z" clip-path="url(#p9375dff77f)" fill="none" stroke="#555" stroke-width="2" stroke-linejoin="miter"/></g><g id="patch_14"><path id="path42" d="M106.992 173.52a33.266 33.266 0 0 0 23.521-56.785 33.266 33.266 0 0 0-56.785 23.521 33.266 33.266 0 0 0 33.264 33.264z" clip-path="url(#p9375dff77f)" fill="none" stroke="#555" stroke-width="2" stroke-linejoin="miter"/></g><g id="patch_15"><path id="path45" d="M108.125 182.13a33.266 33.266 0 0 0 23.522-56.786 33.266 33.266 0 0 0-56.786 23.521 33.266 33.266 0 0 0 33.264 33.264z" clip-path="url(#p9375dff77f)" fill="none" stroke="#555" stroke-width="2" stroke-linejoin="miter"/></g><g id="patch_16"><path id="path48" d="M111.449 190.152a33.266 33.266 0 0 0 23.52-56.785 33.266 33.266 0 0 0-56.784 23.521 33.266 33.266 0 0 0 33.264 33.264z" clip-path="url(#p9375dff77f)" fill="none" stroke="#555" stroke-width="2" stroke-linejoin="miter"/></g><g id="patch_17"><path id="path51" d="M116.735 197.041a33.266 33.266 0 0 0 23.521-56.785 33.266 33.266 0 0 0-56.785 23.521 33.266 33.266 0 0 0 33.264 33.264z" clip-path="url(#p9375dff77f)" fill="none" stroke="#555" stroke-width="2" stroke-linejoin="miter"/></g><g id="patch_18"><path id="path54" d="M123.624 202.327a33.266 33.266 0 0 0 23.521-56.785 33.266 33.266 0 0 0-56.785 23.521 33.266 33.266 0 0 0 33.264 33.264z" clip-path="url(#p9375dff77f)" fill="none" stroke="#555" stroke-width="2" stroke-linejoin="miter"/></g><g id="patch_19"><path id="path57" d="M131.647 205.65a33.266 33.266 0 0 0 23.52-56.785 33.266 33.266 0 0 0-56.784 23.522 33.266 33.266 0 0 0 33.264 33.264z" clip-path="url(#p9375dff77f)" fill="none" stroke="#555" stroke-width="2" stroke-linejoin="miter"/></g><g id="patch_20"><path id="path60" d="M140.256 206.784a33.266 33.266 0 0 0 23.521-56.785 33.266 33.266 0 0 0-56.785 23.521 33.266 33.266 0 0 0 33.264 33.264z" clip-path="url(#p9375dff77f)" fill="none" stroke="#555" stroke-width="2" stroke-linejoin="miter"/></g><g id="patch_21"><path id="path63" d="M148.865 205.65a33.266 33.266 0 0 0 23.522-56.785 33.266 33.266 0 0 0-56.786 23.522 33.266 33.266 0 0 0 33.264 33.264z" clip-path="url(#p9375dff77f)" fill="none" stroke="#555" stroke-width="2" stroke-linejoin="miter"/></g><g id="patch_22"><path id="path66" d="M156.888 202.327a33.266 33.266 0 0 0 23.521-56.785 33.266 33.266 0 0 0-56.785 23.521 33.266 33.266 0 0 0 33.264 33.264z" clip-path="url(#p9375dff77f)" fill="none" stroke="#555" stroke-width="2" stroke-linejoin="miter"/></g><g id="patch_23"><path id="path69" d="M163.777 197.041a33.266 33.266 0 0 0 23.521-56.785 33.266 33.266 0 0 0-56.785 23.521 33.266 33.266 0 0 0 33.264 33.264z" clip-path="url(#p9375dff77f)" fill="none" stroke="#555" stroke-width="2" stroke-linejoin="miter"/></g><g id="patch_24"><path id="path72" d="M169.063 190.152a33.266 33.266 0 0 0 23.522-56.785 33.266 33.266 0 0 0-56.786 23.521 33.266 33.266 0 0 0 33.264 33.264z" clip-path="url(#p9375dff77f)" fill="none" stroke="#555" stroke-width="2" stroke-linejoin="miter"/></g><g id="patch_25"><path id="path75" d="M172.387 182.13a33.266 33.266 0 0 0 23.52-56.786 33.266 33.266 0 0 0-56.784 23.521 33.266 33.266 0 0 0 33.264 33.264z" clip-path="url(#p9375dff77f)" fill="none" stroke="#555" stroke-width="2" stroke-linejoin="miter"/></g></g></g><defs id="defs83"><clipPath id="p9375dff77f"><path id="rect80" d="M7.2 7.2h266.112v266.112H7.2z"/></clipPath></defs><g fill-opacity="1" stroke-opacity="1" stroke-linejoin="round" stroke-linecap="butt" stroke-width=".75" stroke="#555" fill="#555" word-spacing="0" letter-spacing="0" font-family="'Helvetica LT Std'" font-size="90" font-stretch="condensed" font-weight="400" font-variant="normal" font-style="normal" aria-label="ndim" id="text97" style="line-height:0%;-inkscape-font-specification:'Helvetica LT Std Bold';white-space:pre;shape-inside:url(#rect99)" transform="translate(14.554 43.556)"><path d="M159.813-1.432h-6.93v50.04h7.11v-33.48c0-3.6.36-6.48 3.24-9.09 1.89-1.8 4.41-2.79 7.02-2.79 5.76 0 7.47 3.51 7.47 8.73v36.63h7.11V9.998c0-8.82-4.86-12.78-12.33-12.78-5.4 0-9.09 2.52-12.51 6.84h-.18z" style="-inkscape-font-specification:'Helvetica LT Std Condensed'" id="path892"/><path d="M222.362 28.988c0 5.67-2.07 14.94-9.45 14.94-9.72 0-10.08-9.81-10.08-20.61 0-15.39 3.87-20.07 9.81-20.07 9.54 0 9.72 12.69 9.72 19.53zm0-25.29h-.18c-3.33-4.32-6.39-6.48-11.52-6.48-10.71 0-15.57 11.61-15.03 26.28.18 4.41-1.08 26.46 14.67 26.46 6.03 0 9.09-1.98 12.15-7.92h.18v6.57h6.84v-67.5h-7.11z" style="-inkscape-font-specification:'Helvetica LT Std Condensed'" id="path894"/><path d="M249.902 48.608v-50.04h-7.11v50.04zm0-58.5v-9h-7.11v9z" style="-inkscape-font-specification:'Helvetica LT Std Condensed'" id="path896"/><path d="M270.242 15.128c0-3.6.18-6.48 3.06-9.09 1.89-1.8 4.41-2.79 7.02-2.79 5.76 0 7.47 3.51 7.47 8.73v36.63h7.11v-33.48c0-3.6.36-6.48 3.24-9.09 1.8-1.71 4.23-2.7 6.66-2.79 6.12 0 7.65 3.15 7.65 8.73v36.63h7.11v-36.18c0-3.15.18-8.73-3.06-11.7-2.61-2.34-5.76-3.51-9.18-3.51-6.3 0-9.9 2.79-13.41 7.92-2.25-4.77-6.57-7.92-11.88-7.92-5.22 0-9.54 3.51-11.88 7.74h-.18v-6.39h-6.84v50.04h7.11z" style="-inkscape-font-specification:'Helvetica LT Std Condensed'" id="path898"/></g></svg>