<svg xmlns="http://www.w3.org/2000/svg" height="180.07" version="1.1" viewBox="0 0 340.496 135.053" width="453.995" id="svg85"><defs id="defs4"><path d="M146.312 28.989h241.235v86.32H146.312z" id="rect99"/><path d="M230.289 82.925h249.575V200.24H230.289z" id="rect93"/><style type="text/css" id="style2">*{stroke-linecap:butt;stroke-linejoin:round}</style></defs><g id="figure_1" transform="translate(-72.728 -72.731)"><g id="axes_1"><g id="patch_2"><path stroke-linejoin="miter" stroke-width="2" stroke="#555" fill="none" clip-path="url(#p9375dff77f)" d="M173.52 173.52a33.266 33.266 0 0023.521-56.785 33.266 33.266 0 00-56.785 23.521 33.266 33.266 0 0033.264 33.264z" id="path6"/></g><g id="patch_3"><path stroke-linejoin="miter" stroke-width="2" stroke="#555" fill="none" clip-path="url(#p9375dff77f)" d="M172.387 164.91a33.266 33.266 0 0023.52-56.785 33.266 33.266 0 00-56.784 23.522 33.266 33.266 0 0033.264 33.264z" id="path9"/></g><g id="patch_4"><path stroke-linejoin="miter" stroke-width="2" stroke="#555" fill="none" clip-path="url(#p9375dff77f)" d="M169.063 156.888a33.266 33.266 0 0023.522-56.785 33.266 33.266 0 00-56.786 23.521 33.266 33.266 0 0033.264 33.264z" id="path12"/></g><g id="patch_5"><path stroke-linejoin="miter" stroke-width="2" stroke="#555" fill="none" clip-path="url(#p9375dff77f)" d="M163.777 149.999a33.266 33.266 0 0023.521-56.785 33.266 33.266 0 00-56.785 23.52A33.266 33.266 0 00163.777 150z" id="path15"/></g><g id="patch_6"><path stroke-linejoin="miter" stroke-width="2" stroke="#555" fill="none" clip-path="url(#p9375dff77f)" d="M156.888 144.713a33.266 33.266 0 0023.521-56.786 33.266 33.266 0 00-56.785 23.522 33.266 33.266 0 0033.264 33.264z" id="path18"/></g><g id="patch_7"><path stroke-linejoin="miter" stroke-width="2" stroke="#555" fill="none" clip-path="url(#p9375dff77f)" d="M148.865 141.39a33.266 33.266 0 0023.522-56.786 33.266 33.266 0 00-56.786 23.521 33.266 33.266 0 0033.264 33.264z" id="path21"/></g><g id="patch_8"><path stroke-linejoin="miter" stroke-width="2" stroke="#555" fill="none" clip-path="url(#p9375dff77f)" d="M140.256 140.256a33.266 33.266 0 0023.521-56.785 33.266 33.266 0 00-56.785 23.521 33.266 33.266 0 0033.264 33.264z" id="path24"/></g><g id="patch_9"><path stroke-linejoin="miter" stroke-width="2" stroke="#555" fill="none" clip-path="url(#p9375dff77f)" d="M131.647 141.39a33.266 33.266 0 0023.52-56.786 33.266 33.266 0 00-56.784 23.521 33.266 33.266 0 0033.264 33.264z" id="path27"/></g><g id="patch_10"><path stroke-linejoin="miter" stroke-width="2" stroke="#555" fill="none" clip-path="url(#p9375dff77f)" d="M123.624 144.713a33.266 33.266 0 0023.521-56.786A33.266 33.266 0 0090.36 111.45a33.266 33.266 0 0033.264 33.264z" id="path30"/></g><g id="patch_11"><path stroke-linejoin="miter" stroke-width="2" stroke="#555" fill="none" clip-path="url(#p9375dff77f)" d="M116.735 149.999a33.266 33.266 0 0023.521-56.785 33.266 33.266 0 00-56.785 23.52A33.266 33.266 0 00116.735 150z" id="path33"/></g><g id="patch_12"><path stroke-linejoin="miter" stroke-width="2" stroke="#555" fill="none" clip-path="url(#p9375dff77f)" d="M111.449 156.888a33.266 33.266 0 0023.52-56.785 33.266 33.266 0 00-56.784 23.521 33.266 33.266 0 0033.264 33.264z" id="path36"/></g><g id="patch_13"><path stroke-linejoin="miter" stroke-width="2" stroke="#555" fill="none" clip-path="url(#p9375dff77f)" d="M108.125 164.91a33.266 33.266 0 0023.522-56.785 33.266 33.266 0 00-56.786 23.522 33.266 33.266 0 0033.264 33.264z" id="path39"/></g><g id="patch_14"><path stroke-linejoin="miter" stroke-width="2" stroke="#555" fill="none" clip-path="url(#p9375dff77f)" d="M106.992 173.52a33.266 33.266 0 0023.521-56.785 33.266 33.266 0 00-56.785 23.521 33.266 33.266 0 0033.264 33.264z" id="path42"/></g><g id="patch_15"><path stroke-linejoin="miter" stroke-width="2" stroke="#555" fill="none" clip-path="url(#p9375dff77f)" d="M108.125 182.13a33.266 33.266 0 0023.522-56.786 33.266 33.266 0 00-56.786 23.521 33.266 33.266 0 0033.264 33.264z" id="path45"/></g><g id="patch_16"><path stroke-linejoin="miter" stroke-width="2" stroke="#555" fill="none" clip-path="url(#p9375dff77f)" d="M111.449 190.152a33.266 33.266 0 0023.52-56.785 33.266 33.266 0 00-56.784 23.521 33.266 33.266 0 0033.264 33.264z" id="path48"/></g><g id="patch_17"><path stroke-linejoin="miter" stroke-width="2" stroke="#555" fill="none" clip-path="url(#p9375dff77f)" d="M116.735 197.041a33.266 33.266 0 0023.521-56.785 33.266 33.266 0 00-56.785 23.521 33.266 33.266 0 0033.264 33.264z" id="path51"/></g><g id="patch_18"><path stroke-linejoin="miter" stroke-width="2" stroke="#555" fill="none" clip-path="url(#p9375dff77f)" d="M123.624 202.327a33.266 33.266 0 0023.521-56.785 33.266 33.266 0 00-56.785 23.521 33.266 33.266 0 0033.264 33.264z" id="path54"/></g><g id="patch_19"><path stroke-linejoin="miter" stroke-width="2" stroke="#555" fill="none" clip-path="url(#p9375dff77f)" d="M131.647 205.65a33.266 33.266 0 0023.52-56.785 33.266 33.266 0 00-56.784 23.522 33.266 33.266 0 0033.264 33.264z" id="path57"/></g><g id="patch_20"><path stroke-linejoin="miter" stroke-width="2" stroke="#555" fill="none" clip-path="url(#p9375dff77f)" d="M140.256 206.784a33.266 33.266 0 0023.521-56.785 33.266 33.266 0 00-56.785 23.521 33.266 33.266 0 0033.264 33.264z" id="path60"/></g><g id="patch_21"><path stroke-linejoin="miter" stroke-width="2" stroke="#555" fill="none" clip-path="url(#p9375dff77f)" d="M148.865 205.65a33.266 33.266 0 0023.522-56.785 33.266 33.266 0 00-56.786 23.522 33.266 33.266 0 0033.264 33.264z" id="path63"/></g><g id="patch_22"><path stroke-linejoin="miter" stroke-width="2" stroke="#555" fill="none" clip-path="url(#p9375dff77f)" d="M156.888 202.327a33.266 33.266 0 0023.521-56.785 33.266 33.266 0 00-56.785 23.521 33.266 33.266 0 0033.264 33.264z" id="path66"/></g><g id="patch_23"><path stroke-linejoin="miter" stroke-width="2" stroke="#555" fill="none" clip-path="url(#p9375dff77f)" d="M163.777 197.041a33.266 33.266 0 0023.521-56.785 33.266 33.266 0 00-56.785 23.521 33.266 33.266 0 0033.264 33.264z" id="path69"/></g><g id="patch_24"><path stroke-linejoin="miter" stroke-width="2" stroke="#555" fill="none" clip-path="url(#p9375dff77f)" d="M169.063 190.152a33.266 33.266 0 0023.522-56.785 33.266 33.266 0 00-56.786 23.521 33.266 33.266 0 0033.264 33.264z" id="path72"/></g><g id="patch_25"><path stroke-linejoin="miter" stroke-width="2" stroke="#555" fill="none" clip-path="url(#p9375dff77f)" d="M172.387 182.13a33.266 33.266 0 0023.52-56.786 33.266 33.266 0 00-56.784 23.521 33.266 33.266 0 0033.264 33.264z" id="path75"/></g></g></g><defs id="defs83"><clipPath id="p9375dff77f"><path d="M7.2 7.2h266.112v266.112H7.2z" id="rect80"/></clipPath></defs><g transform="translate(20.555 43.556)" style="line-height:0%;-inkscape-font-specification:'Helvetica LT Std Bold';white-space:pre;shape-inside:url(#rect99)" id="text97" aria-label="ndim" font-style="normal" font-variant="normal" font-weight="400" font-stretch="condensed" font-size="90" font-family="Helvetica LT Std" letter-spacing="0" word-spacing="0" fill="#555" stroke="#555" stroke-width=".75" stroke-linecap="butt" stroke-linejoin="round" stroke-opacity="1" fill-opacity="1"><path id="path892" style="-inkscape-font-specification:'Helvetica LT Std Condensed'" d="M159.813-1.432h-6.93v50.04h7.11v-33.48c0-3.6.36-6.48 3.24-9.09 1.89-1.8 4.41-2.79 7.02-2.79 5.76 0 7.47 3.51 7.47 8.73v36.63h7.11V9.998c0-8.82-4.86-12.78-12.33-12.78-5.4 0-9.09 2.52-12.51 6.84h-.18z"/><path id="path894" style="-inkscape-font-specification:'Helvetica LT Std Condensed'" d="M222.362 28.988c0 5.67-2.07 14.94-9.45 14.94-9.72 0-10.08-9.81-10.08-20.61 0-15.39 3.87-20.07 9.81-20.07 9.54 0 9.72 12.69 9.72 19.53zm0-25.29h-.18c-3.33-4.32-6.39-6.48-11.52-6.48-10.71 0-15.57 11.61-15.03 26.28.18 4.41-1.08 26.46 14.67 26.46 6.03 0 9.09-1.98 12.15-7.92h.18v6.57h6.84v-67.5h-7.11z"/><path id="path896" style="-inkscape-font-specification:'Helvetica LT Std Condensed'" d="M249.902 48.608v-50.04h-7.11v50.04zm0-58.5v-9h-7.11v9z"/><path id="path898" style="-inkscape-font-specification:'Helvetica LT Std Condensed'" d="M270.242 15.128c0-3.6.18-6.48 3.06-9.09 1.89-1.8 4.41-2.79 7.02-2.79 5.76 0 7.47 3.51 7.47 8.73v36.63h7.11v-33.48c0-3.6.36-6.48 3.24-9.09 1.8-1.71 4.23-2.7 6.66-2.79 6.12 0 7.65 3.15 7.65 8.73v36.63h7.11v-36.18c0-3.15.18-8.73-3.06-11.7-2.61-2.34-5.76-3.51-9.18-3.51-6.3 0-9.9 2.79-13.41 7.92-2.25-4.77-6.57-7.92-11.88-7.92-5.22 0-9.54 3.51-11.88 7.74h-.18v-6.39h-6.84v50.04h7.11z"/></g></svg>