<svg xmlns="http://www.w3.org/2000/svg" id="svg85" width="473.784" viewBox="0 0 355.338 135.056" version="1.1" height="180.075"><defs id="defs4"><path id="rect99" d="M146.312 28.989h241.235v86.32H146.312z"/><path id="rect93" d="M230.289 82.925h249.575V200.24H230.289z"/><style id="style2" type="text/css">*{stroke-linecap:butt;stroke-linejoin:round}</style></defs><g transform="translate(-72.728 -72.728)" id="figure_1"><g id="axes_1"><g id="patch_2"><path id="path6" d="M173.52 173.52a33.266 33.266 0 0023.521-56.785 33.266 33.266 0 00-56.785 23.521 33.266 33.266 0 0033.264 33.264z" clip-path="url(#p9375dff77f)" fill="none" stroke="#555" stroke-width="2" stroke-linejoin="miter"/></g><g id="patch_3"><path id="path9" d="M172.387 164.91a33.266 33.266 0 0023.52-56.785 33.266 33.266 0 00-56.784 23.522 33.266 33.266 0 0033.264 33.264z" clip-path="url(#p9375dff77f)" fill="none" stroke="#555" stroke-width="2" stroke-linejoin="miter"/></g><g id="patch_4"><path id="path12" d="M169.063 156.888a33.266 33.266 0 0023.522-56.785 33.266 33.266 0 00-56.786 23.521 33.266 33.266 0 0033.264 33.264z" clip-path="url(#p9375dff77f)" fill="none" stroke="#555" stroke-width="2" stroke-linejoin="miter"/></g><g id="patch_5"><path id="path15" d="M163.777 149.999a33.266 33.266 0 0023.521-56.785 33.266 33.266 0 00-56.785 23.52A33.266 33.266 0 00163.777 150z" clip-path="url(#p9375dff77f)" fill="none" stroke="#555" stroke-width="2" stroke-linejoin="miter"/></g><g id="patch_6"><path id="path18" d="M156.888 144.713a33.266 33.266 0 0023.521-56.786 33.266 33.266 0 00-56.785 23.522 33.266 33.266 0 0033.264 33.264z" clip-path="url(#p9375dff77f)" fill="none" stroke="#555" stroke-width="2" stroke-linejoin="miter"/></g><g id="patch_7"><path id="path21" d="M148.865 141.39a33.266 33.266 0 0023.522-56.786 33.266 33.266 0 00-56.786 23.521 33.266 33.266 0 0033.264 33.264z" clip-path="url(#p9375dff77f)" fill="none" stroke="#555" stroke-width="2" stroke-linejoin="miter"/></g><g id="patch_8"><path id="path24" d="M140.256 140.256a33.266 33.266 0 0023.521-56.785 33.266 33.266 0 00-56.785 23.521 33.266 33.266 0 0033.264 33.264z" clip-path="url(#p9375dff77f)" fill="none" stroke="#555" stroke-width="2" stroke-linejoin="miter"/></g><g id="patch_9"><path id="path27" d="M131.647 141.39a33.266 33.266 0 0023.52-56.786 33.266 33.266 0 00-56.784 23.521 33.266 33.266 0 0033.264 33.264z" clip-path="url(#p9375dff77f)" fill="none" stroke="#555" stroke-width="2" stroke-linejoin="miter"/></g><g id="patch_10"><path id="path30" d="M123.624 144.713a33.266 33.266 0 0023.521-56.786A33.266 33.266 0 0090.36 111.45a33.266 33.266 0 0033.264 33.264z" clip-path="url(#p9375dff77f)" fill="none" stroke="#555" stroke-width="2" stroke-linejoin="miter"/></g><g id="patch_11"><path id="path33" d="M116.735 149.999a33.266 33.266 0 0023.521-56.785 33.266 33.266 0 00-56.785 23.52A33.266 33.266 0 00116.735 150z" clip-path="url(#p9375dff77f)" fill="none" stroke="#555" stroke-width="2" stroke-linejoin="miter"/></g><g id="patch_12"><path id="path36" d="M111.449 156.888a33.266 33.266 0 0023.52-56.785 33.266 33.266 0 00-56.784 23.521 33.266 33.266 0 0033.264 33.264z" clip-path="url(#p9375dff77f)" fill="none" stroke="#555" stroke-width="2" stroke-linejoin="miter"/></g><g id="patch_13"><path id="path39" d="M108.125 164.91a33.266 33.266 0 0023.522-56.785 33.266 33.266 0 00-56.786 23.522 33.266 33.266 0 0033.264 33.264z" clip-path="url(#p9375dff77f)" fill="none" stroke="#555" stroke-width="2" stroke-linejoin="miter"/></g><g id="patch_14"><path id="path42" d="M106.992 173.52a33.266 33.266 0 0023.521-56.785 33.266 33.266 0 00-56.785 23.521 33.266 33.266 0 0033.264 33.264z" clip-path="url(#p9375dff77f)" fill="none" stroke="#555" stroke-width="2" stroke-linejoin="miter"/></g><g id="patch_15"><path id="path45" d="M108.125 182.13a33.266 33.266 0 0023.522-56.786 33.266 33.266 0 00-56.786 23.521 33.266 33.266 0 0033.264 33.264z" clip-path="url(#p9375dff77f)" fill="none" stroke="#555" stroke-width="2" stroke-linejoin="miter"/></g><g id="patch_16"><path id="path48" d="M111.449 190.152a33.266 33.266 0 0023.52-56.785 33.266 33.266 0 00-56.784 23.521 33.266 33.266 0 0033.264 33.264z" clip-path="url(#p9375dff77f)" fill="none" stroke="#555" stroke-width="2" stroke-linejoin="miter"/></g><g id="patch_17"><path id="path51" d="M116.735 197.041a33.266 33.266 0 0023.521-56.785 33.266 33.266 0 00-56.785 23.521 33.266 33.266 0 0033.264 33.264z" clip-path="url(#p9375dff77f)" fill="none" stroke="#555" stroke-width="2" stroke-linejoin="miter"/></g><g id="patch_18"><path id="path54" d="M123.624 202.327a33.266 33.266 0 0023.521-56.785 33.266 33.266 0 00-56.785 23.521 33.266 33.266 0 0033.264 33.264z" clip-path="url(#p9375dff77f)" fill="none" stroke="#555" stroke-width="2" stroke-linejoin="miter"/></g><g id="patch_19"><path id="path57" d="M131.647 205.65a33.266 33.266 0 0023.52-56.785 33.266 33.266 0 00-56.784 23.522 33.266 33.266 0 0033.264 33.264z" clip-path="url(#p9375dff77f)" fill="none" stroke="#555" stroke-width="2" stroke-linejoin="miter"/></g><g id="patch_20"><path id="path60" d="M140.256 206.784a33.266 33.266 0 0023.521-56.785 33.266 33.266 0 00-56.785 23.521 33.266 33.266 0 0033.264 33.264z" clip-path="url(#p9375dff77f)" fill="none" stroke="#555" stroke-width="2" stroke-linejoin="miter"/></g><g id="patch_21"><path id="path63" d="M148.865 205.65a33.266 33.266 0 0023.522-56.785 33.266 33.266 0 00-56.786 23.522 33.266 33.266 0 0033.264 33.264z" clip-path="url(#p9375dff77f)" fill="none" stroke="#555" stroke-width="2" stroke-linejoin="miter"/></g><g id="patch_22"><path id="path66" d="M156.888 202.327a33.266 33.266 0 0023.521-56.785 33.266 33.266 0 00-56.785 23.521 33.266 33.266 0 0033.264 33.264z" clip-path="url(#p9375dff77f)" fill="none" stroke="#555" stroke-width="2" stroke-linejoin="miter"/></g><g id="patch_23"><path id="path69" d="M163.777 197.041a33.266 33.266 0 0023.521-56.785 33.266 33.266 0 00-56.785 23.521 33.266 33.266 0 0033.264 33.264z" clip-path="url(#p9375dff77f)" fill="none" stroke="#555" stroke-width="2" stroke-linejoin="miter"/></g><g id="patch_24"><path id="path72" d="M169.063 190.152a33.266 33.266 0 0023.522-56.785 33.266 33.266 0 00-56.786 23.521 33.266 33.266 0 0033.264 33.264z" clip-path="url(#p9375dff77f)" fill="none" stroke="#555" stroke-width="2" stroke-linejoin="miter"/></g><g id="patch_25"><path id="path75" d="M172.387 182.13a33.266 33.266 0 0023.52-56.786 33.266 33.266 0 00-56.784 23.521 33.266 33.266 0 0033.264 33.264z" clip-path="url(#p9375dff77f)" fill="none" stroke="#555" stroke-width="2" stroke-linejoin="miter"/></g></g></g><defs id="defs83"><clipPath id="p9375dff77f"><path id="rect80" d="M7.2 7.2h266.112v266.112H7.2z"/></clipPath></defs><text transform="translate(-.69 41.913)" style="line-height:0%;-inkscape-font-specification:'Helvetica LT Std Bold';white-space:pre;shape-inside:url(#rect99)" id="text97" xml:space="preserve" font-style="normal" font-variant="normal" font-weight="700" font-stretch="normal" font-size="90" font-family="Helvetica LT Std" letter-spacing="0" word-spacing="0" fill="none" stroke="#000" stroke-width=".75" stroke-linecap="butt" stroke-linejoin="miter" stroke-opacity="1"><tspan x="146.313" y="48.608"><tspan style="-inkscape-font-specification:'Helvetica LT Std Bold'" fill="#55555a" stroke="#555" stroke-linejoin="round">ndim</tspan></tspan></text></svg>