<svg xmlns="http://www.w3.org/2000/svg" id="svg85" width="600.49" height="300" version="1.1" viewBox="0 0 450.367 225.001"><defs id="defs4"><path id="rect99" d="M146.312 28.989h241.235v86.32H146.312Z"/><path id="rect93" d="M230.289 82.925h249.575V200.24H230.289Z"/><style id="style2" type="text/css">*{stroke-linecap:butt;stroke-linejoin:round}</style></defs><rect id="rect346" width="636.449" height="467.165" x="-96.04" y="-132.549" ry=".075" style="fill:#59f;fill-opacity:1;stroke:none;stroke-width:2.25001;stroke-linejoin:bevel;stroke-opacity:1"/><defs id="defs83"><clipPath id="p9375dff77f"><path id="rect80" d="M7.2 7.2h266.112v266.112H7.2Z"/></clipPath></defs><g id="g1012" transform="translate(58.125 44.974)"><g id="figure_1" style="fill:none;stroke:#fff;stroke-opacity:1" transform="translate(-72.729 -72.731)"><g id="axes_1" style="fill:none;stroke:#fff;stroke-opacity:1"><g id="patch_2" style="fill:none;stroke:#fff;stroke-opacity:1"><path id="path6" fill="none" stroke="#555" stroke-linejoin="miter" stroke-width="2" d="M173.52 173.52a33.266 33.266 0 0 0 23.521-56.785 33.266 33.266 0 0 0-56.785 23.521 33.266 33.266 0 0 0 33.264 33.264z" clip-path="url(#p9375dff77f)" style="fill:none;stroke:#fff;stroke-opacity:1"/></g><g id="patch_3" style="fill:none;stroke:#fff;stroke-opacity:1"><path id="path9" fill="none" stroke="#555" stroke-linejoin="miter" stroke-width="2" d="M172.387 164.91a33.266 33.266 0 0 0 23.52-56.785 33.266 33.266 0 0 0-56.784 23.522 33.266 33.266 0 0 0 33.264 33.264z" clip-path="url(#p9375dff77f)" style="fill:none;stroke:#fff;stroke-opacity:1"/></g><g id="patch_4" style="fill:none;stroke:#fff;stroke-opacity:1"><path id="path12" fill="none" stroke="#555" stroke-linejoin="miter" stroke-width="2" d="M169.063 156.888a33.266 33.266 0 0 0 23.522-56.785 33.266 33.266 0 0 0-56.786 23.521 33.266 33.266 0 0 0 33.264 33.264z" clip-path="url(#p9375dff77f)" style="fill:none;stroke:#fff;stroke-opacity:1"/></g><g id="patch_5" style="fill:none;stroke:#fff;stroke-opacity:1"><path id="path15" fill="none" stroke="#555" stroke-linejoin="miter" stroke-width="2" d="M163.777 149.999a33.266 33.266 0 0 0 23.521-56.785 33.266 33.266 0 0 0-56.785 23.52A33.266 33.266 0 0 0 163.777 150Z" clip-path="url(#p9375dff77f)" style="fill:none;stroke:#fff;stroke-opacity:1"/></g><g id="patch_6" style="fill:none;stroke:#fff;stroke-opacity:1"><path id="path18" fill="none" stroke="#555" stroke-linejoin="miter" stroke-width="2" d="M156.888 144.713a33.266 33.266 0 0 0 23.521-56.786 33.266 33.266 0 0 0-56.785 23.522 33.266 33.266 0 0 0 33.264 33.264z" clip-path="url(#p9375dff77f)" style="fill:none;stroke:#fff;stroke-opacity:1"/></g><g id="patch_7" style="fill:none;stroke:#fff;stroke-opacity:1"><path id="path21" fill="none" stroke="#555" stroke-linejoin="miter" stroke-width="2" d="M148.865 141.39a33.266 33.266 0 0 0 23.522-56.786 33.266 33.266 0 0 0-56.786 23.521 33.266 33.266 0 0 0 33.264 33.264z" clip-path="url(#p9375dff77f)" style="fill:none;stroke:#fff;stroke-opacity:1"/></g><g id="patch_8" style="fill:none;stroke:#fff;stroke-opacity:1"><path id="path24" fill="none" stroke="#555" stroke-linejoin="miter" stroke-width="2" d="M140.256 140.256a33.266 33.266 0 0 0 23.521-56.785 33.266 33.266 0 0 0-56.785 23.521 33.266 33.266 0 0 0 33.264 33.264z" clip-path="url(#p9375dff77f)" style="fill:none;stroke:#fff;stroke-opacity:1"/></g><g id="patch_9" style="fill:none;stroke:#fff;stroke-opacity:1"><path id="path27" fill="none" stroke="#555" stroke-linejoin="miter" stroke-width="2" d="M131.647 141.39a33.266 33.266 0 0 0 23.52-56.786 33.266 33.266 0 0 0-56.784 23.521 33.266 33.266 0 0 0 33.264 33.264z" clip-path="url(#p9375dff77f)" style="fill:none;stroke:#fff;stroke-opacity:1"/></g><g id="patch_10" style="fill:none;stroke:#fff;stroke-opacity:1"><path id="path30" fill="none" stroke="#555" stroke-linejoin="miter" stroke-width="2" d="M123.624 144.713a33.266 33.266 0 0 0 23.521-56.786A33.266 33.266 0 0 0 90.36 111.45a33.266 33.266 0 0 0 33.264 33.264Z" clip-path="url(#p9375dff77f)" style="fill:none;stroke:#fff;stroke-opacity:1"/></g><g id="patch_11" style="fill:none;stroke:#fff;stroke-opacity:1"><path id="path33" fill="none" stroke="#555" stroke-linejoin="miter" stroke-width="2" d="M116.735 149.999a33.266 33.266 0 0 0 23.521-56.785 33.266 33.266 0 0 0-56.785 23.52A33.266 33.266 0 0 0 116.735 150Z" clip-path="url(#p9375dff77f)" style="fill:none;stroke:#fff;stroke-opacity:1"/></g><g id="patch_12" style="fill:none;stroke:#fff;stroke-opacity:1"><path id="path36" fill="none" stroke="#555" stroke-linejoin="miter" stroke-width="2" d="M111.449 156.888a33.266 33.266 0 0 0 23.52-56.785 33.266 33.266 0 0 0-56.784 23.521 33.266 33.266 0 0 0 33.264 33.264z" clip-path="url(#p9375dff77f)" style="fill:none;stroke:#fff;stroke-opacity:1"/></g><g id="patch_13" style="fill:none;stroke:#fff;stroke-opacity:1"><path id="path39" fill="none" stroke="#555" stroke-linejoin="miter" stroke-width="2" d="M108.125 164.91a33.266 33.266 0 0 0 23.522-56.785 33.266 33.266 0 0 0-56.786 23.522 33.266 33.266 0 0 0 33.264 33.264z" clip-path="url(#p9375dff77f)" style="fill:none;stroke:#fff;stroke-opacity:1"/></g><g id="patch_14" style="fill:none;stroke:#fff;stroke-opacity:1"><path id="path42" fill="none" stroke="#555" stroke-linejoin="miter" stroke-width="2" d="M106.992 173.52a33.266 33.266 0 0 0 23.521-56.785 33.266 33.266 0 0 0-56.785 23.521 33.266 33.266 0 0 0 33.264 33.264z" clip-path="url(#p9375dff77f)" style="fill:none;stroke:#fff;stroke-opacity:1"/></g><g id="patch_15" style="fill:none;stroke:#fff;stroke-opacity:1"><path id="path45" fill="none" stroke="#555" stroke-linejoin="miter" stroke-width="2" d="M108.125 182.13a33.266 33.266 0 0 0 23.522-56.786 33.266 33.266 0 0 0-56.786 23.521 33.266 33.266 0 0 0 33.264 33.264z" clip-path="url(#p9375dff77f)" style="fill:none;stroke:#fff;stroke-opacity:1"/></g><g id="patch_16" style="fill:none;stroke:#fff;stroke-opacity:1"><path id="path48" fill="none" stroke="#555" stroke-linejoin="miter" stroke-width="2" d="M111.449 190.152a33.266 33.266 0 0 0 23.52-56.785 33.266 33.266 0 0 0-56.784 23.521 33.266 33.266 0 0 0 33.264 33.264z" clip-path="url(#p9375dff77f)" style="fill:none;stroke:#fff;stroke-opacity:1"/></g><g id="patch_17" style="fill:none;stroke:#fff;stroke-opacity:1"><path id="path51" fill="none" stroke="#555" stroke-linejoin="miter" stroke-width="2" d="M116.735 197.041a33.266 33.266 0 0 0 23.521-56.785 33.266 33.266 0 0 0-56.785 23.521 33.266 33.266 0 0 0 33.264 33.264z" clip-path="url(#p9375dff77f)" style="fill:none;stroke:#fff;stroke-opacity:1"/></g><g id="patch_18" style="fill:none;stroke:#fff;stroke-opacity:1"><path id="path54" fill="none" stroke="#555" stroke-linejoin="miter" stroke-width="2" d="M123.624 202.327a33.266 33.266 0 0 0 23.521-56.785 33.266 33.266 0 0 0-56.785 23.521 33.266 33.266 0 0 0 33.264 33.264z" clip-path="url(#p9375dff77f)" style="fill:none;stroke:#fff;stroke-opacity:1"/></g><g id="patch_19" style="fill:none;stroke:#fff;stroke-opacity:1"><path id="path57" fill="none" stroke="#555" stroke-linejoin="miter" stroke-width="2" d="M131.647 205.65a33.266 33.266 0 0 0 23.52-56.785 33.266 33.266 0 0 0-56.784 23.522 33.266 33.266 0 0 0 33.264 33.264z" clip-path="url(#p9375dff77f)" style="fill:none;stroke:#fff;stroke-opacity:1"/></g><g id="patch_20" style="fill:none;stroke:#fff;stroke-opacity:1"><path id="path60" fill="none" stroke="#555" stroke-linejoin="miter" stroke-width="2" d="M140.256 206.784a33.266 33.266 0 0 0 23.521-56.785 33.266 33.266 0 0 0-56.785 23.521 33.266 33.266 0 0 0 33.264 33.264z" clip-path="url(#p9375dff77f)" style="fill:none;stroke:#fff;stroke-opacity:1"/></g><g id="patch_21" style="fill:none;stroke:#fff;stroke-opacity:1"><path id="path63" fill="none" stroke="#555" stroke-linejoin="miter" stroke-width="2" d="M148.865 205.65a33.266 33.266 0 0 0 23.522-56.785 33.266 33.266 0 0 0-56.786 23.522 33.266 33.266 0 0 0 33.264 33.264z" clip-path="url(#p9375dff77f)" style="fill:none;stroke:#fff;stroke-opacity:1"/></g><g id="patch_22" style="fill:none;stroke:#fff;stroke-opacity:1"><path id="path66" fill="none" stroke="#555" stroke-linejoin="miter" stroke-width="2" d="M156.888 202.327a33.266 33.266 0 0 0 23.521-56.785 33.266 33.266 0 0 0-56.785 23.521 33.266 33.266 0 0 0 33.264 33.264z" clip-path="url(#p9375dff77f)" style="fill:none;stroke:#fff;stroke-opacity:1"/></g><g id="patch_23" style="fill:none;stroke:#fff;stroke-opacity:1"><path id="path69" fill="none" stroke="#555" stroke-linejoin="miter" stroke-width="2" d="M163.777 197.041a33.266 33.266 0 0 0 23.521-56.785 33.266 33.266 0 0 0-56.785 23.521 33.266 33.266 0 0 0 33.264 33.264z" clip-path="url(#p9375dff77f)" style="fill:none;stroke:#fff;stroke-opacity:1"/></g><g id="patch_24" style="fill:none;stroke:#fff;stroke-opacity:1"><path id="path72" fill="none" stroke="#555" stroke-linejoin="miter" stroke-width="2" d="M169.063 190.152a33.266 33.266 0 0 0 23.522-56.785 33.266 33.266 0 0 0-56.786 23.521 33.266 33.266 0 0 0 33.264 33.264z" clip-path="url(#p9375dff77f)" style="fill:none;stroke:#fff;stroke-opacity:1"/></g><g id="patch_25" style="fill:none;stroke:#fff;stroke-opacity:1"><path id="path75" fill="none" stroke="#555" stroke-linejoin="miter" stroke-width="2" d="M172.387 182.13a33.266 33.266 0 0 0 23.52-56.786 33.266 33.266 0 0 0-56.784 23.521 33.266 33.266 0 0 0 33.264 33.264z" clip-path="url(#p9375dff77f)" style="fill:none;stroke:#fff;stroke-opacity:1"/></g></g></g><g id="text97" fill="#555" fill-opacity="1" stroke="#555" stroke-linecap="butt" stroke-linejoin="round" stroke-opacity="1" stroke-width=".75" aria-label="ndim" font-family="'Helvetica LT Std'" font-size="90" font-stretch="condensed" font-style="normal" font-variant="normal" font-weight="400" letter-spacing="0" style="line-height:0%;-inkscape-font-specification:&quot;Helvetica LT Std Bold&quot;;white-space:pre;shape-inside:url(#rect99);fill:#fff;stroke:none" transform="translate(14.554 43.556)" word-spacing="0"><path id="path892" d="M159.813-1.432h-6.93v50.04h7.11v-33.48c0-3.6.36-6.48 3.24-9.09 1.89-1.8 4.41-2.79 7.02-2.79 5.76 0 7.47 3.51 7.47 8.73v36.63h7.11V9.998c0-8.82-4.86-12.78-12.33-12.78-5.4 0-9.09 2.52-12.51 6.84h-.18z" style="-inkscape-font-specification:&quot;Helvetica LT Std Condensed&quot;;fill:#fff;stroke:none"/><path id="path894" d="M222.362 28.988c0 5.67-2.07 14.94-9.45 14.94-9.72 0-10.08-9.81-10.08-20.61 0-15.39 3.87-20.07 9.81-20.07 9.54 0 9.72 12.69 9.72 19.53zm0-25.29h-.18c-3.33-4.32-6.39-6.48-11.52-6.48-10.71 0-15.57 11.61-15.03 26.28.18 4.41-1.08 26.46 14.67 26.46 6.03 0 9.09-1.98 12.15-7.92h.18v6.57h6.84v-67.5h-7.11z" style="-inkscape-font-specification:&quot;Helvetica LT Std Condensed&quot;;fill:#fff;stroke:none"/><path id="path896" d="M249.902 48.608v-50.04h-7.11v50.04zm0-58.5v-9h-7.11v9z" style="-inkscape-font-specification:&quot;Helvetica LT Std Condensed&quot;;fill:#fff;stroke:none"/><path id="path898" d="M270.242 15.128c0-3.6.18-6.48 3.06-9.09 1.89-1.8 4.41-2.79 7.02-2.79 5.76 0 7.47 3.51 7.47 8.73v36.63h7.11v-33.48c0-3.6.36-6.48 3.24-9.09 1.8-1.71 4.23-2.7 6.66-2.79 6.12 0 7.65 3.15 7.65 8.73v36.63h7.11v-36.18c0-3.15.18-8.73-3.06-11.7-2.61-2.34-5.76-3.51-9.18-3.51-6.3 0-9.9 2.79-13.41 7.92-2.25-4.77-6.57-7.92-11.88-7.92-5.22 0-9.54 3.51-11.88 7.74h-.18v-6.39h-6.84v50.04h7.11z" style="-inkscape-font-specification:&quot;Helvetica LT Std Condensed&quot;;fill:#fff;stroke:none"/></g></g></svg>